# xmcd
#
# Track frame offsets:
#	150
#	16045
#	29439
#	43327
#	58659
#	71429
#	87862
#	104330
#	118911
#	135893
#	150660
#	163731
#	179978
#	192848
#	207614
#	222577
#	239165
#	252130
#	265582
#	279736
#
# Disc length: 3954 seconds
#
# Revision: 0
# Processed by: cddbd v1.5.2PL0 Copyright (c) Steve Scherf et al.
# Submitted via: EasyCDDAExtractor 11.5.0.1
#
DISCID=310f7014
DTITLE=REGINALDO ROSSI - 20 SS - VOL 04 - 20 SS - VOL 04
DYEAR=1900
DGENRE=BREGA
TTITLE0=NAO QUERO MAIS SABER DE TI
TTITLE1=O PAO
TTITLE2=HOJE A NOITE VOU SAIR
TTITLE3=O AMOR EM SEUS OLHOS
TTITLE4=VI VOCE COM UM NAMORADO
TTITLE5=UM ROMANCE QUE NINGUEM LEU
TTITLE6=VOU COMEÇAR TUDO DE NOVO
TTITLE7=LONGE DE MIM
TTITLE8=AQUELA TRISTE CANÇAO
TTITLE9=VOLTA
TTITLE10=MEU FRACASSO
TTITLE11=EM PLENA LUA DE MEL
TTITLE12=NAO SEI
TTITLE13=PARA DE CHORAR
TTITLE14=PORQUE VOCE JA NAO ME MATA DE UMA VEZ
TTITLE15=AMOR AMOR AMOR
TTITLE16=PEDAÇO DE MAU CAMINHO
TTITLE17=NO JARDIM
TTITLE18=NAO QUERO MAIS VOCE
TTITLE19=FESTA DOS PAES
EXTD=
EXTT0=
EXTT1=
EXTT2=
EXTT3=
EXTT4=
EXTT5=
EXTT6=
EXTT7=
EXTT8=
EXTT9=
EXTT10=
EXTT11=
EXTT12=
EXTT13=
EXTT14=
EXTT15=
EXTT16=
EXTT17=
EXTT18=
EXTT19=
PLAYORDER=
